<?xml version="1.0" standalone="no"?>
<!DOCTYPE svg PUBLIC "-//W3C//DTD SVG 20010904//EN"
 "http://www.w3.org/TR/2001/REC-SVG-20010904/DTD/svg10.dtd">
<svg version="1.0" xmlns="http://www.w3.org/2000/svg"
 width="500.000000pt" height="500.000000pt" viewBox="0 0 500.000000 500.000000"
 preserveAspectRatio="xMidYMid meet">

<g transform="translate(0.000000,500.000000) scale(0.100000,-0.100000)"
fill="#000000" stroke="none">
<path d="M2570 4095 c0 -19 3 -25 9 -17 6 10 10 10 21 -3 17 -21 27 -19 36 8
8 21 8 21 15 -8 6 -29 7 -29 8 8 1 43 -11 48 -27 11 l-12 -25 -25 28 -24 28
-1 -30z"/>
<path d="M2782 4095 c-16 -34 -16 -32 18 -37 17 -3 30 -1 30 4 0 4 -12 8 -26
8 -26 0 -26 1 -10 25 9 14 13 25 8 25 -5 0 -14 -11 -20 -25z"/>
<path d="M2950 4096 c0 -2 11 -6 25 -8 13 -3 22 -1 19 3 -5 9 -44 13 -44 5z"/>
<path d="M2940 4066 c0 -9 7 -16 15 -16 8 0 15 -5 15 -11 0 -6 7 -4 15 5 19
18 20 32 1 17 -11 -9 -18 -8 -30 4 -14 15 -16 15 -16 1z"/>
<path d="M3108 4035 c-3 -11 -9 -29 -13 -40 l-8 -20 16 20 c12 14 19 17 24 9
5 -8 14 -3 27 15 11 14 13 20 6 14 -20 -18 -38 -16 -42 5 -3 15 -5 15 -10 -3z"/>
<path d="M2311 4030 c0 -8 4 -22 9 -30 12 -18 12 -2 0 25 -6 13 -9 15 -9 5z"/>
<path d="M2345 3980 c-13 -6 -15 -9 -5 -9 8 0 22 4 30 9 18 12 2 12 -25 0z"/>
<path d="M3274 3978 c-4 -7 -4 -10 1 -6 4 4 16 3 26 -3 11 -5 19 -7 19 -5 0 3
-9 10 -19 16 -15 7 -22 7 -27 -2z"/>
<path d="M2170 3940 l0 -41 21 20 c12 11 28 17 38 13 9 -3 2 6 -15 21 -18 15
-35 27 -38 27 -3 0 -6 -18 -6 -40z m32 5 c0 -5 -5 -11 -11 -13 -6 -2 -11 4
-11 13 0 9 5 15 11 13 6 -2 11 -8 11 -13z"/>
<path d="M3251 3941 c-14 -26 -14 -28 5 -35 14 -5 15 -4 5 8 -10 11 -9 16 5
24 11 6 13 12 6 16 -6 4 -16 -2 -21 -13z"/>
<path d="M2029 3889 c-13 -11 -19 -18 -12 -15 6 4 23 -8 38 -26 15 -18 24 -26
19 -18 -4 8 -14 23 -22 32 -12 14 -12 20 -2 33 18 22 6 19 -21 -6z"/>
<path d="M3424 3891 c3 -5 -3 -20 -14 -34 -11 -14 -20 -28 -20 -32 0 -4 10 4
21 19 14 17 27 25 37 21 13 -5 12 -2 -3 15 -18 20 -31 27 -21 11z"/>
<path d="M2552 3798 c-44 -23 -82 -71 -69 -84 4 -4 23 0 42 9 42 20 87 22 118
5 12 -6 51 -42 87 -80 51 -54 85 -79 159 -116 100 -51 100 -51 158 -177 38
-83 37 -81 22 -67 -7 7 -27 40 -44 74 -37 77 -87 111 -195 133 -99 21 -128 39
-175 112 -59 92 -116 111 -172 60 -31 -28 -29 -38 7 -30 41 8 72 -21 117 -112
20 -38 49 -82 65 -97 19 -17 25 -28 16 -28 -8 0 -23 -9 -34 -21 -15 -17 -19
-37 -19 -104 0 -46 -3 -87 -7 -91 -11 -10 -30 46 -29 86 1 46 -19 73 -73 100
-39 18 -46 26 -46 51 0 36 -32 69 -66 69 -25 0 -26 2 -22 44 3 26 16 58 32 79
15 20 33 57 40 84 7 26 16 58 20 71 6 17 4 22 -11 22 -55 -1 -107 -99 -129
-242 -20 -133 -16 -190 12 -202 l22 -10 -20 -45 c-33 -78 -78 -226 -78 -259 0
-27 6 -35 40 -52 62 -32 95 -27 127 19 16 21 33 47 39 57 9 15 15 9 46 -47 28
-50 39 -84 48 -149 6 -47 14 -101 17 -120 5 -31 4 -33 -9 -22 -9 7 -18 26 -22
42 -4 21 -20 40 -51 62 -49 35 -52 45 -30 108 18 50 18 50 5 50 -6 0 -20 -20
-32 -45 l-22 -46 22 -42 c24 -44 27 -61 24 -139 l-2 -48 -40 0 c-22 0 -69 12
-103 27 -54 24 -75 28 -162 28 l-100 0 -83 -59 c-46 -32 -85 -57 -86 -55 -2 2
-16 42 -31 89 -32 99 -59 156 -88 187 -21 23 -115 56 -343 118 -71 19 -132 31
-136 27 -4 -4 3 -42 17 -83 14 -41 51 -155 81 -254 82 -263 78 -257 225 -319
46 -19 134 -57 196 -85 62 -28 121 -51 132 -51 34 0 34 37 -2 178 l-33 132 36
10 c103 28 138 25 284 -24 77 -25 141 -44 143 -42 2 2 -31 16 -74 31 -43 15
-100 35 -127 45 l-50 17 55 10 c30 6 62 14 72 18 12 5 17 3 17 -8 0 -39 169
-133 258 -144 46 -5 50 -8 56 -37 4 -18 2 -32 -4 -34 -5 -2 -8 -8 -4 -13 7
-11 14 -99 8 -99 -8 0 -104 65 -104 71 0 3 18 11 40 18 75 22 64 45 -47 91
-41 17 -77 29 -79 27 -3 -2 27 -17 66 -33 38 -16 70 -31 70 -34 -1 -9 -145
-68 -230 -94 -47 -14 -134 -35 -193 -47 l-108 -22 -33 -52 c-19 -28 -68 -91
-111 -140 -66 -76 -103 -131 -93 -140 8 -8 369 -36 445 -35 48 1 103 -3 121
-9 18 -5 104 -15 192 -22 l158 -13 -5 -90 c-3 -54 -1 -102 6 -118 22 -58 77
-20 101 69 18 71 30 101 47 115 14 11 15 -1 11 -109 -3 -66 -2 -126 2 -132 16
-27 29 20 40 146 9 104 9 135 -1 151 -10 16 -9 32 5 86 10 36 22 69 27 72 5 3
74 -36 152 -85 79 -50 149 -91 155 -91 17 0 23 70 13 150 -10 73 -26 127 -72
240 -19 46 -22 72 -21 160 2 98 25 395 39 505 l6 50 14 -32 c10 -25 19 -33 38
-33 30 0 31 5 4 111 -23 95 -47 139 -84 159 -14 8 -24 19 -21 26 3 7 -11 20
-30 29 -18 9 -59 47 -90 86 -31 39 -67 74 -81 80 -13 5 -53 9 -89 9 -50 0 -66
4 -71 16 -4 11 -8 12 -13 4 -6 -10 -16 -10 -43 -1 -44 15 -56 28 -110 126 -29
54 -55 88 -80 104 -44 29 -36 44 19 39 36 -3 42 -8 85 -74 49 -74 91 -101 179
-119 120 -23 160 -52 204 -145 24 -51 61 -89 73 -76 3 3 -10 38 -30 78 -20 40
-43 89 -51 108 -8 19 -22 46 -30 60 -8 14 -27 53 -42 88 -47 110 -184 211
-298 220 -40 3 -61 -2 -94 -20z m195 -24 c106 -54 186 -145 209 -237 l7 -29
-81 41 c-61 31 -99 60 -159 121 -77 78 -81 80 -127 80 -26 0 -56 -5 -68 -11
-11 -6 -22 -8 -25 -5 -10 10 21 39 62 58 52 24 108 19 182 -18z m-291 -58 c-8
-32 -23 -69 -33 -83 -36 -51 -43 -69 -43 -114 0 -25 -5 -61 -11 -78 -9 -24 -9
-39 0 -58 14 -30 8 -41 -14 -23 -8 7 -15 28 -15 46 0 65 31 237 50 280 19 44
67 101 76 91 3 -3 -1 -30 -10 -61z m-2 -255 c24 -26 17 -65 -11 -69 -20 -3
-23 1 -23 27 0 16 -4 33 -10 36 -16 10 -11 25 8 25 11 0 27 -9 36 -19z m-46
-45 c5 -37 -13 -55 -27 -29 -12 23 -3 65 13 60 6 -2 12 -16 14 -31z m350 -32
c2 -1 -2 -20 -9 -41 l-13 -38 -6 35 c-3 20 -10 42 -14 49 -7 10 -3 11 15 6 13
-4 26 -9 27 -11z m-44 -26 c6 -18 6 -40 -2 -66 -14 -45 -47 -91 -57 -80 -13
12 -10 132 4 156 16 30 43 25 55 -10z m-198 3 c39 -18 74 -53 74 -75 0 -5 -12
2 -27 17 -16 14 -53 37 -83 51 -42 19 -49 25 -30 25 14 0 44 -8 66 -18z m471
-35 c54 -60 69 -86 50 -86 -26 0 -81 45 -103 83 -11 20 -24 34 -27 30 -20 -19
3 -94 37 -122 9 -8 16 -24 16 -38 0 -23 -1 -23 -34 10 -44 44 -56 68 -56 111
0 43 -25 50 -40 10 -16 -42 -12 -68 21 -112 40 -55 50 -91 34 -129 -20 -46
-30 -46 -30 1 0 32 -11 58 -47 118 -34 53 -48 86 -48 111 0 67 3 69 98 65 l84
-3 45 -49z m-499 15 c10 -6 5 -10 -17 -14 -17 -4 -48 -23 -68 -43 -43 -43 -53
-33 -23 25 18 37 24 41 58 41 20 0 43 -4 50 -9z m421 -136 c23 -25 41 -55 41
-67 0 -19 2 -20 10 -8 19 29 10 84 -20 129 -17 24 -30 51 -29 60 0 13 3 12 12
-4 27 -43 66 -74 115 -89 55 -16 108 -46 82 -46 -8 0 3 -10 24 -23 22 -12 48
-36 59 -54 19 -33 61 -192 53 -201 -13 -13 -36 11 -42 45 -19 105 -53 120
-149 69 -38 -20 -74 -36 -81 -36 -8 0 -32 -16 -53 -36 l-40 -35 -3 33 c-4 38
-2 45 -38 -114 -18 -79 -20 -102 -11 -129 20 -57 3 -43 -32 27 -65 131 -180
435 -169 446 12 12 29 -21 42 -82 7 -30 8 -31 9 -9 0 15 -6 46 -14 70 -9 23
-12 45 -7 48 4 3 18 19 30 35 18 24 22 25 22 10 0 -11 14 -48 31 -84 35 -74
35 -123 0 -171 -26 -34 -26 -39 -3 -39 48 0 130 54 213 141 47 49 82 89 78 89
-4 0 -44 -37 -88 -82 -44 -46 -95 -91 -113 -101 -30 -17 -30 -16 9 17 45 40
68 89 57 130 -3 14 -21 47 -40 73 -38 53 -39 59 -22 100 11 28 11 28 19 -20 6
-36 18 -59 48 -92z m-361 86 c26 -27 53 -89 172 -394 32 -81 76 -178 97 -215
22 -37 43 -78 46 -91 6 -25 -24 -185 -43 -228 -6 -15 -18 -23 -34 -23 -56 0
-161 278 -191 504 -13 97 -20 118 -55 177 -37 62 -45 69 -95 88 -31 12 -60 21
-65 21 -6 0 -10 5 -10 11 0 6 11 8 28 5 79 -15 122 -18 122 -7 0 20 -66 41
-127 41 -41 0 -54 3 -43 10 19 12 105 13 148 1 46 -14 39 4 -10 24 -31 12 -55
15 -92 9 -46 -6 -49 -5 -37 9 26 32 92 32 169 1 19 -9 14 14 -9 37 -17 17 -28
20 -62 15 -35 -6 -38 -5 -28 8 12 14 35 22 74 25 11 0 31 -12 45 -28z m283
-159 c25 -53 15 -92 -35 -140 -45 -42 -51 -40 -26 8 28 55 25 97 -11 167 -25
48 -30 67 -24 93 l7 32 34 -58 c19 -33 44 -78 55 -102z m-325 133 c24 -18 7
-19 -26 0 -16 9 -19 14 -9 15 8 0 24 -7 35 -15z m-41 -106 c14 -6 2 -7 -37 -3
-99 10 -100 -22 -2 -51 30 -8 54 -18 54 -21 0 -8 -40 -84 -45 -84 -2 0 -21 11
-41 25 -21 14 -51 25 -70 25 -19 0 -34 2 -34 4 0 3 20 62 35 104 5 14 109 16
140 1z m-74 -145 c27 -24 24 -34 -10 -34 -48 0 -81 17 -81 41 0 19 4 21 36 16
20 -3 45 -14 55 -23z m780 7 l24 -19 -17 -67 c-40 -149 -165 -389 -253 -483
l-54 -57 15 49 c18 63 18 137 -1 183 -8 20 -18 34 -20 31 -3 -3 2 -22 11 -44
20 -47 14 -146 -11 -194 -48 -93 42 -24 125 95 28 42 81 135 116 208 36 72 63
119 61 102 -3 -16 -11 -111 -17 -210 -6 -99 -13 -189 -15 -200 -3 -15 -27 -30
-82 -54 -65 -28 -94 -35 -168 -39 -78 -3 -88 -2 -72 10 12 9 27 52 43 123 23
97 24 115 13 150 -23 71 -26 144 -9 214 9 39 23 61 59 96 25 25 62 50 81 56
19 7 55 25 80 40 54 34 61 35 91 10z m-1633 -65 c225 -65 237 -71 261 -110 37
-59 140 -382 166 -517 18 -95 12 -100 -77 -62 -221 94 -355 156 -376 176 -15
14 -39 73 -73 182 -28 88 -66 207 -85 265 -19 58 -34 108 -34 113 0 13 29 7
218 -47z m923 -63 c-12 -20 -14 -14 -5 12 4 9 9 14 11 11 3 -2 0 -13 -6 -23z
m83 -115 c9 -12 16 -29 16 -37 0 -7 11 -24 24 -36 16 -15 35 -55 52 -111 14
-48 46 -126 70 -173 24 -46 42 -86 41 -88 -2 -2 -27 4 -56 13 -61 18 -74 12
-44 -17 31 -31 123 -49 243 -47 l105 1 -130 7 c-123 7 -187 20 -210 43 -7 6
-2 7 15 3 110 -30 160 -35 239 -26 50 6 105 19 138 35 63 28 83 31 83 11 0
-21 -26 -38 -83 -52 -29 -7 -43 -13 -32 -13 21 -1 79 12 106 23 13 6 18 0 23
-27 4 -19 18 -63 33 -98 40 -100 53 -157 53 -247 0 -98 18 -100 -172 24 l-127
83 23 58 c13 31 22 63 19 70 -6 16 -81 30 -215 43 -59 5 -116 15 -125 21 -14
9 -19 27 -21 91 -3 96 -41 219 -88 290 -30 43 -32 53 -31 122 2 66 4 73 19 65
9 -5 24 -19 32 -31z m-208 -103 c32 -15 82 -28 109 -30 58 -4 72 -18 110 -110
l24 -60 -38 -3 c-48 -4 -132 28 -193 73 -49 36 -83 80 -53 69 10 -4 15 0 15
10 0 20 -3 20 -48 -3 -20 -10 -64 -22 -97 -26 -65 -7 -64 -1 6 38 17 10 29 20
26 24 -12 11 -149 -30 -178 -54 -31 -27 -39 -21 -12 9 9 10 14 21 11 24 -3 3
-16 -9 -28 -25 -12 -17 -31 -36 -43 -42 -18 -9 -20 -9 -9 2 6 7 12 20 12 29 0
16 110 95 145 104 50 13 182 -3 241 -29z m-218 -56 c-10 -5 -18 -16 -18 -23 0
-9 -16 -15 -44 -18 -42 -3 -44 -2 -29 15 16 17 62 35 93 36 12 0 11 -2 -2 -10z
m417 -244 c-16 -7 -41 -15 -55 -19 -19 -5 -16 -2 10 13 19 11 44 20 55 20 15
-1 13 -4 -10 -14z m28 -103 l58 -39 -104 -7 c-59 -4 -147 -2 -206 5 -78 8
-109 8 -125 -1 -12 -6 -49 -10 -81 -8 l-60 3 45 14 c25 8 117 33 205 56 179
47 163 48 268 -23z m-535 -44 c-2 -7 18 -15 52 -21 50 -8 53 -10 35 -23 -127
-91 -175 -129 -172 -138 4 -13 91 -36 140 -36 21 0 51 7 68 15 51 27 195 123
210 141 23 28 -13 44 -100 44 -52 0 -72 3 -64 11 7 7 41 7 113 0 56 -6 110
-11 121 -11 15 0 9 -12 -29 -63 -57 -75 -130 -213 -118 -224 11 -11 52 40 120
154 86 143 86 143 169 143 l70 0 133 -86 c74 -47 134 -90 134 -94 0 -4 -9 -33
-20 -65 -11 -32 -20 -65 -20 -74 -1 -9 -10 -27 -21 -40 -18 -22 -24 -23 -77
-17 -31 3 -107 8 -167 11 -61 3 -153 12 -205 21 -52 9 -129 15 -170 14 -41 0
-154 6 -250 15 -96 8 -178 15 -182 15 -23 0 -1 37 63 107 38 43 90 108 115
146 45 66 56 79 52 55z m806 -29 c55 -6 105 -13 113 -16 19 -7 16 -38 -8 -84
-19 -38 -21 -40 -42 -26 -12 8 -66 42 -119 76 -54 35 -98 64 -98 65 0 3 14 2
154 -15z m-505 -5 c17 -4 31 -10 31 -13 0 -14 -217 -151 -249 -157 -35 -7
-151 14 -151 27 0 5 17 20 38 33 20 13 64 45 97 70 58 44 62 46 131 46 39 0
86 -3 103 -6z m109 -36 c-8 -13 -38 -62 -67 -110 -28 -48 -57 -91 -63 -94 -17
-11 68 143 103 188 34 42 50 51 27 16z m343 -423 c-60 -123 -75 -125 -67 -7 3
48 5 90 6 95 0 4 24 7 53 7 l54 0 -46 -95z"/>
<path d="M3068 3183 c6 -2 18 -2 25 0 6 3 1 5 -13 5 -14 0 -19 -2 -12 -5z"/>
<path d="M1940 3765 c13 -14 26 -25 28 -25 3 0 -5 11 -18 25 -13 14 -26 25
-28 25 -3 0 5 -11 18 -25z"/>
<path d="M3514 3758 l-29 -33 33 29 c30 28 37 36 29 36 -2 0 -16 -15 -33 -32z"/>
<path d="M1812 3678 c-17 -17 -15 -43 6 -59 14 -11 15 -11 5 1 -20 22 -15 50
10 60 13 5 16 9 7 9 -9 1 -21 -4 -28 -11z"/>
<path d="M3585 3664 c-16 -15 -23 -23 -15 -19 8 5 23 15 33 24 17 15 18 14 13
-14 -5 -24 -4 -26 3 -10 12 25 13 45 4 45 -5 -1 -21 -12 -38 -26z"/>
<path d="M1857 3673 c-4 -3 -7 -11 -7 -17 0 -6 4 -4 10 4 8 12 10 12 16 -3 3
-9 0 -25 -7 -35 -12 -16 -12 -16 5 -1 12 11 16 24 11 38 -6 21 -16 26 -28 14z"/>
<path d="M3638 3630 c-14 -10 -28 -16 -32 -13 -3 3 -6 1 -6 -5 0 -18 12 -14
45 13 36 29 29 34 -7 5z"/>
<path d="M1730 3535 c0 -7 61 -37 66 -33 2 3 -12 12 -31 21 -19 9 -35 15 -35
12z"/>
<path d="M3682 3518 c-25 -25 -6 -68 30 -68 10 0 18 4 18 9 0 5 -9 7 -20 4
-25 -7 -38 22 -21 48 13 22 10 24 -7 7z"/>
<path d="M3746 3483 c-6 -14 -5 -15 5 -6 7 7 10 15 7 18 -3 3 -9 -2 -12 -12z"/>
<path d="M1662 3408 c-19 -19 -14 -45 10 -51 29 -8 36 -1 9 8 -26 8 -27 30 -3
44 9 6 12 11 7 11 -6 0 -16 -5 -23 -12z"/>
<path d="M1717 3400 c10 -11 19 -20 21 -20 1 0 -2 9 -8 20 -6 11 -15 20 -20
20 -6 0 -2 -9 7 -20z"/>
<path d="M1716 3353 c-6 -14 -5 -15 5 -6 7 7 10 15 7 18 -3 3 -9 -2 -12 -12z"/>
<path d="M1564 1882 c-15 -9 -28 -222 -14 -222 5 0 9 10 7 21 -1 16 8 27 36
42 50 26 59 15 58 -62 -1 -91 24 -79 28 13 1 22 11 52 23 69 14 20 17 31 10
36 -8 5 -9 17 -2 41 15 52 13 70 -10 70 -16 0 -22 -11 -32 -60 -10 -52 -15
-61 -41 -70 -36 -12 -78 -14 -60 -2 15 10 29 117 16 125 -5 3 -14 3 -19 -1z"/>
<path d="M3590 1844 c0 -8 5 -12 10 -9 6 3 10 10 10 16 0 5 -4 9 -10 9 -5 0
-10 -7 -10 -16z"/>
<path d="M2012 1801 c-32 -30 -42 -46 -41 -68 0 -15 -10 -59 -24 -98 -39 -108
-47 -61 -21 118 6 43 5 47 -13 47 -11 0 -26 -7 -33 -15 -9 -11 -16 -13 -24 -5
-29 29 -74 -9 -94 -81 -10 -39 -1 -69 23 -69 7 0 26 24 43 53 16 28 39 60 50
71 l21 18 -6 -90 c-3 -49 -3 -101 1 -116 9 -36 44 -35 52 2 3 15 13 51 22 81
16 51 19 55 62 67 25 8 51 14 58 14 21 0 13 -29 -15 -53 -67 -54 -93 -86 -93
-111 0 -47 54 -29 89 29 26 45 13 45 -17 0 -22 -35 -52 -47 -52 -21 0 17 70
77 81 71 4 -3 21 9 39 25 38 35 50 37 57 10 7 -27 28 -25 50 5 54 77 54 77 48
-1 -6 -81 -1 -104 26 -104 13 0 21 12 30 42 9 35 13 39 20 25 18 -32 43 -19
72 37 27 51 63 94 71 85 2 -2 -1 -36 -7 -75 -12 -87 0 -149 27 -149 15 0 23
15 37 65 10 36 23 73 29 82 14 25 12 33 -5 18 -8 -7 -22 -38 -32 -69 -9 -31
-20 -60 -25 -66 -11 -13 -10 92 2 156 11 58 3 77 -27 63 -10 -4 -35 -8 -56 -8
-37 -1 -41 -4 -73 -61 -19 -33 -39 -70 -44 -82 -17 -42 -23 -24 -17 52 4 46 3
76 -4 80 -5 4 -28 -12 -51 -34 -22 -23 -42 -41 -43 -41 -1 0 0 20 3 45 4 37 2
45 -12 45 -12 0 -16 -9 -16 -35 0 -47 -24 -56 -56 -22 -13 15 -30 25 -37 23
-35 -11 -77 -14 -77 -6 0 5 16 24 35 43 19 19 35 37 35 41 0 16 -29 2 -68 -33z
m-191 -87 c-33 -37 -43 -26 -14 16 21 31 37 42 41 30 2 -6 -10 -26 -27 -46z
m629 49 c-1 -5 -16 -26 -36 -48 -33 -38 -34 -39 -24 -10 6 16 19 38 27 47 17
19 33 24 33 11z"/>
<path d="M2976 1801 c-48 -49 -48 -87 -1 -84 17 1 42 4 58 8 24 7 27 5 27 -19
0 -14 -4 -26 -8 -26 -17 0 -94 -74 -103 -98 -13 -35 2 -48 39 -33 26 11 70 67
59 77 -2 3 -14 -11 -25 -31 -21 -35 -52 -48 -52 -21 0 18 68 78 81 71 5 -4 19
6 31 20 21 24 82 47 161 62 36 7 37 -19 0 -50 -67 -54 -93 -86 -93 -111 0 -47
54 -29 89 29 26 45 13 45 -17 0 -22 -35 -52 -47 -52 -21 0 17 70 77 81 71 4
-3 21 9 39 25 41 38 48 38 52 -2 2 -24 8 -34 23 -36 15 -2 27 10 48 52 27 51
63 94 71 85 2 -2 -1 -36 -7 -75 -12 -88 -1 -149 28 -149 14 0 22 13 33 55 19
68 19 69 38 42 20 -29 52 -28 65 1 8 18 17 23 34 19 19 -3 28 4 50 42 15 25
30 46 35 46 4 0 7 -37 6 -82 -1 -77 1 -83 19 -83 15 0 24 12 35 45 8 25 19 51
24 58 4 7 6 16 2 19 -3 3 -15 -15 -28 -41 -12 -25 -26 -46 -30 -46 -10 0 -10
35 1 83 9 39 5 77 -10 77 -4 0 -26 -19 -49 -42 l-40 -42 0 47 c0 46 -12 62
-24 31 -3 -9 -6 -30 -6 -48 0 -32 -23 -76 -40 -76 -5 0 -10 30 -12 67 -2 53
-7 68 -19 71 -12 2 -19 -7 -24 -35 -8 -44 -50 -171 -59 -180 -10 -10 -7 99 4
158 11 58 3 77 -27 63 -10 -4 -35 -8 -57 -8 -34 -1 -41 -5 -58 -38 -23 -43
-49 -49 -72 -17 -13 19 -22 21 -65 17 -28 -3 -51 -1 -51 3 0 4 16 23 35 42 19
19 35 37 35 41 0 17 -30 2 -69 -35 -33 -32 -42 -47 -38 -65 3 -19 0 -24 -17
-24 -12 0 -27 10 -34 21 -12 18 -21 21 -63 17 -27 -3 -49 -2 -49 3 0 4 16 24
35 45 40 43 41 44 17 44 -10 0 -35 -17 -56 -39z m464 -38 c-1 -5 -16 -26 -36
-48 -33 -38 -34 -39 -24 -10 6 16 19 38 27 47 17 19 33 24 33 11z"/>
<path d="M1545 1613 c8 -45 13 -52 25 -34 9 16 -7 71 -22 71 -6 0 -8 -14 -3
-37z"/>
</g>
</svg>
